<?xml version="1.0" encoding="UTF-8" standalone="no"?>
<!DOCTYPE svg PUBLIC "-//W3C//DTD SVG 1.1//EN"
 "http://www.w3.org/Graphics/SVG/1.1/DTD/svg11.dtd">
<!-- Generated by graphviz version 2.43.0 (0)
 -->
<!-- Title: G Pages: 1 -->
<svg width="1224pt" height="782pt"
 viewBox="0.00 0.00 1224.00 782.00" xmlns="http://www.w3.org/2000/svg" xmlns:xlink="http://www.w3.org/1999/xlink">
<g id="graph0" class="graph" transform="scale(1 1) rotate(0) translate(4 778)">
<title>G</title>
<polygon fill="white" stroke="transparent" points="-4,4 -4,-778 1220,-778 1220,4 -4,4"/>
<g id="clust1" class="cluster">
<title>cluster_root</title>
<g id="a_clust1"><a xlink:title="eventq_index=0&#10;full_system=false&#10;sim_quantum=0&#10;time_sync_enable=false&#10;time_sync_period=100000000000&#10;time_sync_spin_threshold=100000000">
<path fill="#bab6ae" stroke="#000000" d="M20,-8C20,-8 1196,-8 1196,-8 1202,-8 1208,-14 1208,-20 1208,-20 1208,-754 1208,-754 1208,-760 1202,-766 1196,-766 1196,-766 20,-766 20,-766 14,-766 8,-760 8,-754 8,-754 8,-20 8,-20 8,-14 14,-8 20,-8"/>
<text text-anchor="middle" x="608" y="-750.8" font-family="Arial" font-size="14.00" fill="#000000">root </text>
<text text-anchor="middle" x="608" y="-735.8" font-family="Arial" font-size="14.00" fill="#000000">: Root</text>
</a>
</g>
</g>
<g id="clust2" class="cluster">
<title>cluster_board</title>
<g id="a_clust2"><a xlink:title="auto_unlink_shared_backstore=false&#10;cache_line_size=64&#10;eventq_index=0&#10;exit_on_work_items=true&#10;external_memory_ranges=&#10;init_param=0&#10;m5ops_base=4294967296&#10;mem_mode=timing&#10;mem_ranges=0:4294967296&#10;memories=board.memory.mem_ctrl.dram&#10;mmap_using_noreserve=false&#10;multi_thread=false&#10;&#10;um_work_ids=16&#10;&#13;eadfile=&#10;&#13;edirect_paths=&#10;shadow_rom_ranges=&#10;shared_backstore=&#10;symbolfile=&#10;thermal_components=&#10;thermal_model=Null&#10;work_begin_ckpt_count=0&#10;work_begin_cpu_id_exit=&#45;1&#10;work_begin_exit_count=0&#10;work_cpus_ckpt_count=0&#10;work_end_ckpt_count=0&#10;work_end_exit_count=0&#10;work_item_id=&#45;1&#10;workload=board.workload">
<path fill="#e4e7eb" stroke="#000000" d="M28,-16C28,-16 1188,-16 1188,-16 1194,-16 1200,-22 1200,-28 1200,-28 1200,-708 1200,-708 1200,-714 1194,-720 1188,-720 1188,-720 28,-720 28,-720 22,-720 16,-714 16,-708 16,-708 16,-28 16,-28 16,-22 22,-16 28,-16"/>
<text text-anchor="middle" x="608" y="-704.8" font-family="Arial" font-size="14.00" fill="#000000">board </text>
<text text-anchor="middle" x="608" y="-689.8" font-family="Arial" font-size="14.00" fill="#000000">: SimpleBoard</text>
</a>
</g>
</g>
<g id="clust6" class="cluster">
<title>cluster_board_processor</title>
<g id="a_clust6"><a xlink:title="eventq_index=0&#10;thermal_domain=Null">
<path fill="#bab6ae" stroke="#000000" d="M284,-314C284,-314 1180,-314 1180,-314 1186,-314 1192,-320 1192,-326 1192,-326 1192,-662 1192,-662 1192,-668 1186,-674 1180,-674 1180,-674 284,-674 284,-674 278,-674 272,-668 272,-662 272,-662 272,-326 272,-326 272,-320 278,-314 284,-314"/>
<text text-anchor="middle" x="732" y="-658.8" font-family="Arial" font-size="14.00" fill="#000000">processor </text>
<text text-anchor="middle" x="732" y="-643.8" font-family="Arial" font-size="14.00" fill="#000000">: SimpleProcessor</text>
</a>
</g>
</g>
<g id="clust7" class="cluster">
<title>cluster_board_processor_cores</title>
<g id="a_clust7"><a xlink:title="eventq_index=0&#10;thermal_domain=Null">
<path fill="#9f9c95" stroke="#000000" d="M292,-322C292,-322 1172,-322 1172,-322 1178,-322 1184,-328 1184,-334 1184,-334 1184,-616 1184,-616 1184,-622 1178,-628 1172,-628 1172,-628 292,-628 292,-628 286,-628 280,-622 280,-616 280,-616 280,-334 280,-334 280,-328 286,-322 292,-322"/>
<text text-anchor="middle" x="732" y="-612.8" font-family="Arial" font-size="14.00" fill="#000000">cores </text>
<text text-anchor="middle" x="732" y="-597.8" font-family="Arial" font-size="14.00" fill="#000000">: SimpleCore</text>
</a>
</g>
</g>
<g id="clust8" class="cluster">
<title>cluster_board_processor_cores_core</title>
<g id="a_clust8"><a xlink:title="LFSTSize=1024&#10;LQEntries=32&#10;LSQCheckLoads=true&#10;LSQDepCheckShift=4&#10;SQEntries=32&#10;SSITAssoc=1&#10;SSITIndexingPolicy=board.processor.cores.core.SSITIndexingPolicy&#10;SSITReplPolicy=board.processor.cores.core.SSITReplPolicy&#10;SSITSize=1024&#10;activity=0&#10;bacToFetchDelay=1&#10;backComSize=5&#10;branchPred=board.processor.cores.core.branchPred&#10;cacheLoadPorts=200&#10;cacheStorePorts=200&#10;checker=Null&#10;clk_domain=board.clk_domain&#10;commitToDecodeDelay=1&#10;commitToFetchDelay=1&#10;commitToIEWDelay=1&#10;commitToRenameDelay=1&#10;commitWidth=8&#10;cpu_id=0&#10;decodeToFetchDelay=1&#10;decodeToRenameDelay=1&#10;decodeWidth=8&#10;decoder=board.processor.cores.core.decoder&#10;decoupledFrontEnd=false&#10;dispatchWidth=8&#10;do_checkpoint_insts=true&#10;do_statistics_insts=true&#10;eventq_index=0&#10;fetchBufferSize=64&#10;fetchQueueSize=32&#10;fetchTargetWidth=32&#10;fetchToBacDelay=1&#10;fetchToDecodeDelay=1&#10;fetchTrapLatency=1&#10;fetchWidth=8&#10;forwardComSize=5&#10;function_trace=false&#10;function_trace_start=0&#10;iewToCommitDelay=1&#10;iewToDecodeDelay=1&#10;iewToFetchDelay=1&#10;iewToRenameDelay=1&#10;instQueues=board.processor.cores.core.instQueues&#10;interrupts=board.processor.cores.core.interrupts&#10;isa=board.processor.cores.core.isa&#10;issueToExecuteDelay=1&#10;issueWidth=8&#10;maxFTPerCycle=4&#10;maxTakenPredPerCycle=1&#10;max_insts_all_threads=0&#10;max_insts_any_thread=0&#10;minInstSize=1&#10;mmu=board.processor.cores.core.mmu&#10;&#10;eedsTSO=true&#10;&#10;umFTQEntries=8&#10;&#10;umPhysCCRegs=1280&#10;&#10;umPhysFloatRegs=256&#10;&#10;umPhysIntRegs=256&#10;&#10;umPhysMatRegs=2&#10;&#10;umPhysVecPredRegs=32&#10;&#10;umPhysVecRegs=256&#10;&#10;umROBEntries=192&#10;&#10;umRobs=1&#10;&#10;umThreads=1&#10;power_gating_on_idle=false&#10;power_model=&#10;power_state=board.processor.cores.core.power_state&#10;progress_interval=0&#10;pwr_gating_latency=300&#10;&#13;ecvRespBufferSize=64&#10;&#13;ecvRespMaxCachelines=1&#10;&#13;ecvRespThrottling=false&#10;&#13;enameToDecodeDelay=1&#10;&#13;enameToFetchDelay=1&#10;&#13;enameToIEWDelay=2&#10;&#13;enameToROBDelay=1&#10;&#13;enameWidth=8&#10;simpoint_start_insts=&#10;smtCommitPolicy=RoundRobin&#10;smtFetchPolicy=RoundRobin&#10;smtLSQPolicy=Partitioned&#10;smtLSQThreshold=100&#10;smtNumFetchingThreads=1&#10;smtROBPolicy=Partitioned&#10;smtROBThreshold=100&#10;socket_id=0&#10;squashWidth=NullOpt&#10;store_set_clear_period=250000&#10;switched_out=false&#10;syscallRetryLatency=10000&#10;system=board&#10;tracer=board.processor.cores.core.tracer&#10;trapLatency=13&#10;wbWidth=8&#10;workload=board.processor.cores.core.workload">
<path fill="#bbc6d9" stroke="#000000" d="M300,-330C300,-330 1164,-330 1164,-330 1170,-330 1176,-336 1176,-342 1176,-342 1176,-570 1176,-570 1176,-576 1170,-582 1164,-582 1164,-582 300,-582 300,-582 294,-582 288,-576 288,-570 288,-570 288,-342 288,-342 288,-336 294,-330 300,-330"/>
<text text-anchor="middle" x="732" y="-566.8" font-family="Arial" font-size="14.00" fill="#000000">core </text>
<text text-anchor="middle" x="732" y="-551.8" font-family="Arial" font-size="14.00" fill="#000000">: X86O3CPU</text>
</a>
</g>
</g>
<g id="clust9" class="cluster">
<title>cluster_board_processor_cores_core_mmu</title>
<g id="a_clust9"><a xlink:title="dtb=board.processor.cores.core.mmu.dtb&#10;eventq_index=0&#10;itb=board.processor.cores.core.mmu.itb">
<path fill="#bab6ae" stroke="#000000" d="M618,-338C618,-338 952,-338 952,-338 958,-338 964,-344 964,-350 964,-350 964,-524 964,-524 964,-530 958,-536 952,-536 952,-536 618,-536 618,-536 612,-536 606,-530 606,-524 606,-524 606,-350 606,-350 606,-344 612,-338 618,-338"/>
<text text-anchor="middle" x="785" y="-520.8" font-family="Arial" font-size="14.00" fill="#000000">mmu </text>
<text text-anchor="middle" x="785" y="-505.8" font-family="Arial" font-size="14.00" fill="#000000">: X86MMU</text>
</a>
</g>
</g>
<g id="clust10" class="cluster">
<title>cluster_board_processor_cores_core_mmu_itb</title>
<g id="a_clust10"><a xlink:title="entry_type=instruction&#10;eventq_index=0&#10;&#10;ext_level=Null&#10;size=64&#10;system=board&#10;walker=board.processor.cores.core.mmu.itb.walker">
<path fill="#9f9c95" stroke="#000000" d="M801,-346C801,-346 944,-346 944,-346 950,-346 956,-352 956,-358 956,-358 956,-478 956,-478 956,-484 950,-490 944,-490 944,-490 801,-490 801,-490 795,-490 789,-484 789,-478 789,-478 789,-358 789,-358 789,-352 795,-346 801,-346"/>
<text text-anchor="middle" x="872.5" y="-474.8" font-family="Arial" font-size="14.00" fill="#000000">itb </text>
<text text-anchor="middle" x="872.5" y="-459.8" font-family="Arial" font-size="14.00" fill="#000000">: X86TLB</text>
</a>
</g>
</g>
<g id="clust11" class="cluster">
<title>cluster_board_processor_cores_core_mmu_itb_walker</title>
<g id="a_clust11"><a xlink:title="clk_domain=board.clk_domain&#10;eventq_index=0&#10;&#10;um_squash_per_cycle=4&#10;power_model=&#10;power_state=board.processor.cores.core.mmu.itb.walker.power_state&#10;system=board">
<path fill="#84827c" stroke="#000000" d="M809,-354C809,-354 936,-354 936,-354 942,-354 948,-360 948,-366 948,-366 948,-432 948,-432 948,-438 942,-444 936,-444 936,-444 809,-444 809,-444 803,-444 797,-438 797,-432 797,-432 797,-366 797,-366 797,-360 803,-354 809,-354"/>
<text text-anchor="middle" x="872.5" y="-428.8" font-family="Arial" font-size="14.00" fill="#000000">walker </text>
<text text-anchor="middle" x="872.5" y="-413.8" font-family="Arial" font-size="14.00" fill="#000000">: X86PagetableWalker</text>
</a>
</g>
</g>
<g id="clust13" class="cluster">
<title>cluster_board_processor_cores_core_mmu_dtb</title>
<g id="a_clust13"><a xlink:title="entry_type=data&#10;eventq_index=0&#10;&#10;ext_level=Null&#10;size=64&#10;system=board&#10;walker=board.processor.cores.core.mmu.dtb.walker">
<path fill="#9f9c95" stroke="#000000" d="M626,-346C626,-346 769,-346 769,-346 775,-346 781,-352 781,-358 781,-358 781,-478 781,-478 781,-484 775,-490 769,-490 769,-490 626,-490 626,-490 620,-490 614,-484 614,-478 614,-478 614,-358 614,-358 614,-352 620,-346 626,-346"/>
<text text-anchor="middle" x="697.5" y="-474.8" font-family="Arial" font-size="14.00" fill="#000000">dtb </text>
<text text-anchor="middle" x="697.5" y="-459.8" font-family="Arial" font-size="14.00" fill="#000000">: X86TLB</text>
</a>
</g>
</g>
<g id="clust14" class="cluster">
<title>cluster_board_processor_cores_core_mmu_dtb_walker</title>
<g id="a_clust14"><a xlink:title="clk_domain=board.clk_domain&#10;eventq_index=0&#10;&#10;um_squash_per_cycle=4&#10;power_model=&#10;power_state=board.processor.cores.core.mmu.dtb.walker.power_state&#10;system=board">
<path fill="#84827c" stroke="#000000" d="M634,-354C634,-354 761,-354 761,-354 767,-354 773,-360 773,-366 773,-366 773,-432 773,-432 773,-438 767,-444 761,-444 761,-444 634,-444 634,-444 628,-444 622,-438 622,-432 622,-432 622,-366 622,-366 622,-360 628,-354 634,-354"/>
<text text-anchor="middle" x="697.5" y="-428.8" font-family="Arial" font-size="14.00" fill="#000000">walker </text>
<text text-anchor="middle" x="697.5" y="-413.8" font-family="Arial" font-size="14.00" fill="#000000">: X86PagetableWalker</text>
</a>
</g>
</g>
<g id="clust148" class="cluster">
<title>cluster_board_processor_cores_core_interrupts</title>
<g id="a_clust148"><a xlink:title="clk_domain=board.processor.cores.core.interrupts.clk_domain&#10;eventq_index=0&#10;int_latency=1000&#10;pio_latency=100000&#10;system=board">
<path fill="#bab6ae" stroke="#000000" d="M308,-354C308,-354 586,-354 586,-354 592,-354 598,-360 598,-366 598,-366 598,-432 598,-432 598,-438 592,-444 586,-444 586,-444 308,-444 308,-444 302,-444 296,-438 296,-432 296,-432 296,-366 296,-366 296,-360 302,-354 308,-354"/>
<text text-anchor="middle" x="447" y="-428.8" font-family="Arial" font-size="14.00" fill="#000000">interrupts </text>
<text text-anchor="middle" x="447" y="-413.8" font-family="Arial" font-size="14.00" fill="#000000">: X86LocalApic</text>
</a>
</g>
</g>
<g id="clust150" class="cluster">
<title>cluster_board_memory</title>
<g id="a_clust150"><a xlink:title="eventq_index=0&#10;thermal_domain=Null">
<path fill="#bab6ae" stroke="#000000" d="M136,-346C136,-346 252,-346 252,-346 258,-346 264,-352 264,-358 264,-358 264,-478 264,-478 264,-484 258,-490 252,-490 252,-490 136,-490 136,-490 130,-490 124,-484 124,-478 124,-478 124,-358 124,-358 124,-352 130,-346 136,-346"/>
<text text-anchor="middle" x="194" y="-474.8" font-family="Arial" font-size="14.00" fill="#000000">memory </text>
<text text-anchor="middle" x="194" y="-459.8" font-family="Arial" font-size="14.00" fill="#000000">: ChanneledMemory</text>
</a>
</g>
</g>
<g id="clust151" class="cluster">
<title>cluster_board_memory_mem_ctrl</title>
<g id="a_clust151"><a xlink:title="clk_domain=board.clk_domain&#10;command_window=10000&#10;disable_sanity_check=false&#10;dram=board.memory.mem_ctrl.dram&#10;eventq_index=0&#10;mem_sched_policy=frfcfs&#10;min_reads_per_switch=16&#10;min_writes_per_switch=16&#10;power_model=&#10;power_state=board.memory.mem_ctrl.power_state&#10;qos_policy=Null&#10;qos_priorities=1&#10;qos_priority_escalation=false&#10;qos_q_policy=fifo&#10;qos_requestors= &#160;&#160;&#160;&#160;&#160;&#160;&#160;&#160;&#160;&#160;&#160;&#160;&#160;&#160;&#10;qos_syncro_scheduler=false&#10;qos_turnaround_policy=Null&#10;static_backend_latency=10000&#10;static_frontend_latency=10000&#10;system=board&#10;write_high_thresh_perc=85&#10;write_low_thresh_perc=50">
<path fill="#9f9c95" stroke="#000000" d="M191,-354C191,-354 244,-354 244,-354 250,-354 256,-360 256,-366 256,-366 256,-432 256,-432 256,-438 250,-444 244,-444 244,-444 191,-444 191,-444 185,-444 179,-438 179,-432 179,-432 179,-366 179,-366 179,-360 185,-354 191,-354"/>
<text text-anchor="middle" x="217.5" y="-428.8" font-family="Arial" font-size="14.00" fill="#000000">mem_ctrl </text>
<text text-anchor="middle" x="217.5" y="-413.8" font-family="Arial" font-size="14.00" fill="#000000">: MemCtrl</text>
</a>
</g>
</g>
<g id="clust155" class="cluster">
<title>cluster_board_cache_hierarchy</title>
<g id="a_clust155"><a xlink:title="eventq_index=0&#10;thermal_domain=Null">
<path fill="#bab6ae" stroke="#000000" d="M218,-24C218,-24 1128,-24 1128,-24 1134,-24 1140,-30 1140,-36 1140,-36 1140,-294 1140,-294 1140,-300 1134,-306 1128,-306 1128,-306 218,-306 218,-306 212,-306 206,-300 206,-294 206,-294 206,-36 206,-36 206,-30 212,-24 218,-24"/>
<text text-anchor="middle" x="673" y="-290.8" font-family="Arial" font-size="14.00" fill="#000000">cache_hierarchy </text>
<text text-anchor="middle" x="673" y="-275.8" font-family="Arial" font-size="14.00" fill="#000000">: PrivateL1PrivateL2CacheHierarchy</text>
</a>
</g>
</g>
<g id="clust156" class="cluster">
<title>cluster_board_cache_hierarchy_membus</title>
<g id="a_clust156"><a xlink:title="clk_domain=board.clk_domain&#10;eventq_index=0&#10;forward_latency=4&#10;frontend_latency=3&#10;header_latency=1&#10;max_outstanding_snoops=512&#10;max_routing_table_size=512&#10;point_of_coherency=true&#10;point_of_unification=true&#10;power_model=&#10;power_state=board.cache_hierarchy.membus.power_state&#10;&#13;esponse_latency=2&#10;snoop_filter=board.cache_hierarchy.membus.snoop_filter&#10;snoop_response_latency=4&#10;system=board&#10;use_default_range=false&#10;width=64">
<path fill="#6f798c" stroke="#000000" d="M226,-32C226,-32 538,-32 538,-32 544,-32 550,-38 550,-44 550,-44 550,-248 550,-248 550,-254 544,-260 538,-260 538,-260 226,-260 226,-260 220,-260 214,-254 214,-248 214,-248 214,-44 214,-44 214,-38 220,-32 226,-32"/>
<text text-anchor="middle" x="382" y="-244.8" font-family="Arial" font-size="14.00" fill="#000000">membus </text>
<text text-anchor="middle" x="382" y="-229.8" font-family="Arial" font-size="14.00" fill="#000000">: SystemXBar</text>
</a>
</g>
</g>
<g id="clust159" class="cluster">
<title>cluster_board_cache_hierarchy_membus_badaddr_responder</title>
<g id="a_clust159"><a xlink:title="clk_domain=board.clk_domain&#10;eventq_index=0&#10;fake_mem=false&#10;pio_addr=0&#10;pio_latency=100000&#10;pio_size=8&#10;power_model=&#10;power_state=board.cache_hierarchy.membus.badaddr_responder.power_state&#10;&#13;et_bad_addr=true&#10;&#13;et_data16=65535&#10;&#13;et_data32=4294967295&#10;&#13;et_data64=18446744073709551615&#10;&#13;et_data8=255&#10;system=board&#10;update_data=false&#10;warn_access=">
<path fill="#c7a793" stroke="#000000" d="M234,-40C234,-40 348,-40 348,-40 354,-40 360,-46 360,-52 360,-52 360,-118 360,-118 360,-124 354,-130 348,-130 348,-130 234,-130 234,-130 228,-130 222,-124 222,-118 222,-118 222,-52 222,-52 222,-46 228,-40 234,-40"/>
<text text-anchor="middle" x="291" y="-114.8" font-family="Arial" font-size="14.00" fill="#000000">badaddr_responder </text>
<text text-anchor="middle" x="291" y="-99.8" font-family="Arial" font-size="14.00" fill="#000000">: BadAddr</text>
</a>
</g>
</g>
<g id="clust161" class="cluster">
<title>cluster_board_cache_hierarchy_l2buses</title>
<g id="a_clust161"><a xlink:title="clk_domain=board.clk_domain&#10;eventq_index=0&#10;forward_latency=0&#10;frontend_latency=1&#10;header_latency=1&#10;max_outstanding_snoops=512&#10;max_routing_table_size=512&#10;point_of_coherency=false&#10;point_of_unification=true&#10;power_model=&#10;power_state=board.cache_hierarchy.l2buses.power_state&#10;&#13;esponse_latency=1&#10;snoop_filter=board.cache_hierarchy.l2buses.snoop_filter&#10;snoop_response_latency=1&#10;system=board&#10;use_default_range=false&#10;width=32">
<path fill="#6f798c" stroke="#000000" d="M645,-170C645,-170 881,-170 881,-170 887,-170 893,-176 893,-182 893,-182 893,-248 893,-248 893,-254 887,-260 881,-260 881,-260 645,-260 645,-260 639,-260 633,-254 633,-248 633,-248 633,-182 633,-182 633,-176 639,-170 645,-170"/>
<text text-anchor="middle" x="763" y="-244.8" font-family="Arial" font-size="14.00" fill="#000000">l2buses </text>
<text text-anchor="middle" x="763" y="-229.8" font-family="Arial" font-size="14.00" fill="#000000">: L2XBar</text>
</a>
</g>
</g>
<g id="clust164" class="cluster">
<title>cluster_board_cache_hierarchy_l2&#45;cache&#45;0</title>
<g id="a_clust164"><a xlink:title="addr_ranges=0:18446744073709551615&#10;assoc=16&#10;clk_domain=board.clk_domain&#10;clusivity=mostly_incl&#10;compressor=Null&#10;data_latency=10&#10;demand_mshr_reserve=1&#10;eventq_index=0&#10;is_read_only=false&#10;max_miss_count=0&#10;move_contractions=true&#10;mshrs=20&#10;partitioning_manager=Null&#10;power_model=&#10;power_state=board.cache_hierarchy.l2&#45;cache&#45;0.power_state&#10;prefetcher=board.cache_hierarchy.l2&#45;cache&#45;0.prefetcher&#10;&#13;eplace_expansions=true&#10;&#13;eplacement_policy=board.cache_hierarchy.l2&#45;cache&#45;0.replacement_policy&#10;&#13;esponse_latency=1&#10;sequential_access=false&#10;size=524288&#10;system=board&#10;tag_latency=10&#10;tags=board.cache_hierarchy.l2&#45;cache&#45;0.tags&#10;tgts_per_mshr=12&#10;warmup_percentage=0&#10;write_allocator=Null&#10;write_buffers=8&#10;writeback_clean=false">
<path fill="#9f9c95" stroke="#000000" d="M570,-40C570,-40 732,-40 732,-40 738,-40 744,-46 744,-52 744,-52 744,-118 744,-118 744,-124 738,-130 732,-130 732,-130 570,-130 570,-130 564,-130 558,-124 558,-118 558,-118 558,-52 558,-52 558,-46 564,-40 570,-40"/>
<text text-anchor="middle" x="651" y="-114.8" font-family="Arial" font-size="14.00" fill="#000000">l2&#45;cache&#45;0 </text>
<text text-anchor="middle" x="651" y="-99.8" font-family="Arial" font-size="14.00" fill="#000000">: L2Cache</text>
</a>
</g>
</g>
<g id="clust174" class="cluster">
<title>cluster_board_cache_hierarchy_l1i&#45;cache&#45;0</title>
<g id="a_clust174"><a xlink:title="addr_ranges=0:18446744073709551615&#10;assoc=8&#10;clk_domain=board.clk_domain&#10;clusivity=mostly_incl&#10;compressor=Null&#10;data_latency=1&#10;demand_mshr_reserve=1&#10;eventq_index=0&#10;is_read_only=false&#10;max_miss_count=0&#10;move_contractions=true&#10;mshrs=16&#10;partitioning_manager=Null&#10;power_model=&#10;power_state=board.cache_hierarchy.l1i&#45;cache&#45;0.power_state&#10;prefetcher=board.cache_hierarchy.l1i&#45;cache&#45;0.prefetcher&#10;&#13;eplace_expansions=true&#10;&#13;eplacement_policy=board.cache_hierarchy.l1i&#45;cache&#45;0.replacement_policy&#10;&#13;esponse_latency=1&#10;sequential_access=false&#10;size=65536&#10;system=board&#10;tag_latency=1&#10;tags=board.cache_hierarchy.l1i&#45;cache&#45;0.tags&#10;tgts_per_mshr=20&#10;warmup_percentage=0&#10;write_allocator=Null&#10;write_buffers=8&#10;writeback_clean=true">
<path fill="#9f9c95" stroke="#000000" d="M764,-40C764,-40 926,-40 926,-40 932,-40 938,-46 938,-52 938,-52 938,-118 938,-118 938,-124 932,-130 926,-130 926,-130 764,-130 764,-130 758,-130 752,-124 752,-118 752,-118 752,-52 752,-52 752,-46 758,-40 764,-40"/>
<text text-anchor="middle" x="845" y="-114.8" font-family="Arial" font-size="14.00" fill="#000000">l1i&#45;cache&#45;0 </text>
<text text-anchor="middle" x="845" y="-99.8" font-family="Arial" font-size="14.00" fill="#000000">: L1ICache</text>
</a>
</g>
</g>
<g id="clust184" class="cluster">
<title>cluster_board_cache_hierarchy_l1d&#45;cache&#45;0</title>
<g id="a_clust184"><a xlink:title="addr_ranges=0:18446744073709551615&#10;assoc=8&#10;clk_domain=board.clk_domain&#10;clusivity=mostly_incl&#10;compressor=Null&#10;data_latency=1&#10;demand_mshr_reserve=1&#10;eventq_index=0&#10;is_read_only=false&#10;max_miss_count=0&#10;move_contractions=true&#10;mshrs=16&#10;partitioning_manager=Null&#10;power_model=&#10;power_state=board.cache_hierarchy.l1d&#45;cache&#45;0.power_state&#10;prefetcher=board.cache_hierarchy.l1d&#45;cache&#45;0.prefetcher&#10;&#13;eplace_expansions=true&#10;&#13;eplacement_policy=board.cache_hierarchy.l1d&#45;cache&#45;0.replacement_policy&#10;&#13;esponse_latency=1&#10;sequential_access=false&#10;size=65536&#10;system=board&#10;tag_latency=1&#10;tags=board.cache_hierarchy.l1d&#45;cache&#45;0.tags&#10;tgts_per_mshr=20&#10;warmup_percentage=0&#10;write_allocator=Null&#10;write_buffers=8&#10;writeback_clean=false">
<path fill="#9f9c95" stroke="#000000" d="M958,-40C958,-40 1120,-40 1120,-40 1126,-40 1132,-46 1132,-52 1132,-52 1132,-118 1132,-118 1132,-124 1126,-130 1120,-130 1120,-130 958,-130 958,-130 952,-130 946,-124 946,-118 946,-118 946,-52 946,-52 946,-46 952,-40 958,-40"/>
<text text-anchor="middle" x="1039" y="-114.8" font-family="Arial" font-size="14.00" fill="#000000">l1d&#45;cache&#45;0 </text>
<text text-anchor="middle" x="1039" y="-99.8" font-family="Arial" font-size="14.00" fill="#000000">: L1DCache</text>
</a>
</g>
</g>
<!-- board_system_port -->
<g id="node1" class="node">
<title>board_system_port</title>
<path fill="#b6b8bc" stroke="#000000" d="M103.5,-398C103.5,-398 36.5,-398 36.5,-398 30.5,-398 24.5,-392 24.5,-386 24.5,-386 24.5,-374 24.5,-374 24.5,-368 30.5,-362 36.5,-362 36.5,-362 103.5,-362 103.5,-362 109.5,-362 115.5,-368 115.5,-374 115.5,-374 115.5,-386 115.5,-386 115.5,-392 109.5,-398 103.5,-398"/>
<text text-anchor="middle" x="70" y="-376.3" font-family="Arial" font-size="14.00" fill="#000000">system_port</text>
</g>
<!-- board_cache_hierarchy_membus_cpu_side_ports -->
<g id="node10" class="node">
<title>board_cache_hierarchy_membus_cpu_side_ports</title>
<path fill="#586070" stroke="#000000" d="M394,-214C394,-214 310,-214 310,-214 304,-214 298,-208 298,-202 298,-202 298,-190 298,-190 298,-184 304,-178 310,-178 310,-178 394,-178 394,-178 400,-178 406,-184 406,-190 406,-190 406,-202 406,-202 406,-208 400,-214 394,-214"/>
<text text-anchor="middle" x="352" y="-192.3" font-family="Arial" font-size="14.00" fill="#000000">cpu_side_ports</text>
</g>
<!-- board_system_port&#45;&gt;board_cache_hierarchy_membus_cpu_side_ports -->
<g id="edge1" class="edge">
<title>board_system_port&#45;&gt;board_cache_hierarchy_membus_cpu_side_ports</title>
<path fill="none" stroke="black" d="M90.59,-361.99C110.73,-346.44 142.97,-324.34 175,-314 199.17,-306.2 267.46,-319.46 289,-306 318.62,-287.5 335.81,-249.63 344.54,-223.77"/>
<polygon fill="black" stroke="black" points="347.9,-224.78 347.59,-214.19 341.23,-222.66 347.9,-224.78"/>
</g>
<!-- board_processor_cores_core_icache_port -->
<g id="node2" class="node">
<title>board_processor_cores_core_icache_port</title>
<path fill="#959ead" stroke="#000000" d="M1046,-398C1046,-398 984,-398 984,-398 978,-398 972,-392 972,-386 972,-386 972,-374 972,-374 972,-368 978,-362 984,-362 984,-362 1046,-362 1046,-362 1052,-362 1058,-368 1058,-374 1058,-374 1058,-386 1058,-386 1058,-392 1052,-398 1046,-398"/>
<text text-anchor="middle" x="1015" y="-376.3" font-family="Arial" font-size="14.00" fill="#000000">icache_port</text>
</g>
<!-- board_cache_hierarchy_l1i&#45;cache&#45;0_cpu_side -->
<g id="node18" class="node">
<title>board_cache_hierarchy_l1i&#45;cache&#45;0_cpu_side</title>
<path fill="#7f7c77" stroke="#000000" d="M917.5,-84C917.5,-84 870.5,-84 870.5,-84 864.5,-84 858.5,-78 858.5,-72 858.5,-72 858.5,-60 858.5,-60 858.5,-54 864.5,-48 870.5,-48 870.5,-48 917.5,-48 917.5,-48 923.5,-48 929.5,-54 929.5,-60 929.5,-60 929.5,-72 929.5,-72 929.5,-78 923.5,-84 917.5,-84"/>
<text text-anchor="middle" x="894" y="-62.3" font-family="Arial" font-size="14.00" fill="#000000">cpu_side</text>
</g>
<!-- board_processor_cores_core_icache_port&#45;&gt;board_cache_hierarchy_l1i&#45;cache&#45;0_cpu_side -->
<g id="edge2" class="edge">
<title>board_processor_cores_core_icache_port&#45;&gt;board_cache_hierarchy_l1i&#45;cache&#45;0_cpu_side</title>
<path fill="none" stroke="black" d="M1008.32,-361.78C988.28,-310.11 928.56,-156.1 904.36,-93.7"/>
<polygon fill="black" stroke="black" points="907.54,-92.22 900.66,-84.17 901.01,-94.75 907.54,-92.22"/>
</g>
<!-- board_processor_cores_core_dcache_port -->
<g id="node3" class="node">
<title>board_processor_cores_core_dcache_port</title>
<path fill="#959ead" stroke="#000000" d="M1155.5,-398C1155.5,-398 1088.5,-398 1088.5,-398 1082.5,-398 1076.5,-392 1076.5,-386 1076.5,-386 1076.5,-374 1076.5,-374 1076.5,-368 1082.5,-362 1088.5,-362 1088.5,-362 1155.5,-362 1155.5,-362 1161.5,-362 1167.5,-368 1167.5,-374 1167.5,-374 1167.5,-386 1167.5,-386 1167.5,-392 1161.5,-398 1155.5,-398"/>
<text text-anchor="middle" x="1122" y="-376.3" font-family="Arial" font-size="14.00" fill="#000000">dcache_port</text>
</g>
<!-- board_cache_hierarchy_l1d&#45;cache&#45;0_cpu_side -->
<g id="node20" class="node">
<title>board_cache_hierarchy_l1d&#45;cache&#45;0_cpu_side</title>
<path fill="#7f7c77" stroke="#000000" d="M1111.5,-84C1111.5,-84 1064.5,-84 1064.5,-84 1058.5,-84 1052.5,-78 1052.5,-72 1052.5,-72 1052.5,-60 1052.5,-60 1052.5,-54 1058.5,-48 1064.5,-48 1064.5,-48 1111.5,-48 1111.5,-48 1117.5,-48 1123.5,-54 1123.5,-60 1123.5,-60 1123.5,-72 1123.5,-72 1123.5,-78 1117.5,-84 1111.5,-84"/>
<text text-anchor="middle" x="1088" y="-62.3" font-family="Arial" font-size="14.00" fill="#000000">cpu_side</text>
</g>
<!-- board_processor_cores_core_dcache_port&#45;&gt;board_cache_hierarchy_l1d&#45;cache&#45;0_cpu_side -->
<g id="edge3" class="edge">
<title>board_processor_cores_core_dcache_port&#45;&gt;board_cache_hierarchy_l1d&#45;cache&#45;0_cpu_side</title>
<path fill="none" stroke="black" d="M1120.12,-361.78C1114.52,-310.32 1097.85,-157.37 1090.99,-94.48"/>
<polygon fill="black" stroke="black" points="1094.43,-93.73 1089.87,-84.17 1087.47,-94.49 1094.43,-93.73"/>
</g>
<!-- board_processor_cores_core_mmu_itb_walker_port -->
<g id="node4" class="node">
<title>board_processor_cores_core_mmu_itb_walker_port</title>
<path fill="#6a6863" stroke="#000000" d="M847,-398C847,-398 817,-398 817,-398 811,-398 805,-392 805,-386 805,-386 805,-374 805,-374 805,-368 811,-362 817,-362 817,-362 847,-362 847,-362 853,-362 859,-368 859,-374 859,-374 859,-386 859,-386 859,-392 853,-398 847,-398"/>
<text text-anchor="middle" x="832" y="-376.3" font-family="Arial" font-size="14.00" fill="#000000">port</text>
</g>
<!-- board_cache_hierarchy_l2buses_cpu_side_ports -->
<g id="node14" class="node">
<title>board_cache_hierarchy_l2buses_cpu_side_ports</title>
<path fill="#586070" stroke="#000000" d="M873,-214C873,-214 789,-214 789,-214 783,-214 777,-208 777,-202 777,-202 777,-190 777,-190 777,-184 783,-178 789,-178 789,-178 873,-178 873,-178 879,-178 885,-184 885,-190 885,-190 885,-202 885,-202 885,-208 879,-214 873,-214"/>
<text text-anchor="middle" x="831" y="-192.3" font-family="Arial" font-size="14.00" fill="#000000">cpu_side_ports</text>
</g>
<!-- board_processor_cores_core_mmu_itb_walker_port&#45;&gt;board_cache_hierarchy_l2buses_cpu_side_ports -->
<g id="edge4" class="edge">
<title>board_processor_cores_core_mmu_itb_walker_port&#45;&gt;board_cache_hierarchy_l2buses_cpu_side_ports</title>
<path fill="none" stroke="black" d="M831.91,-361.88C831.73,-330.31 831.36,-262.67 831.15,-224.57"/>
<polygon fill="black" stroke="black" points="834.65,-224.19 831.09,-214.21 827.65,-224.23 834.65,-224.19"/>
</g>
<!-- board_processor_cores_core_mmu_dtb_walker_port -->
<g id="node5" class="node">
<title>board_processor_cores_core_mmu_dtb_walker_port</title>
<path fill="#6a6863" stroke="#000000" d="M753,-398C753,-398 723,-398 723,-398 717,-398 711,-392 711,-386 711,-386 711,-374 711,-374 711,-368 717,-362 723,-362 723,-362 753,-362 753,-362 759,-362 765,-368 765,-374 765,-374 765,-386 765,-386 765,-392 759,-398 753,-398"/>
<text text-anchor="middle" x="738" y="-376.3" font-family="Arial" font-size="14.00" fill="#000000">port</text>
</g>
<!-- board_processor_cores_core_mmu_dtb_walker_port&#45;&gt;board_cache_hierarchy_l2buses_cpu_side_ports -->
<g id="edge5" class="edge">
<title>board_processor_cores_core_mmu_dtb_walker_port&#45;&gt;board_cache_hierarchy_l2buses_cpu_side_ports</title>
<path fill="none" stroke="black" d="M746.75,-361.88C763.02,-330.04 798.04,-261.51 817.41,-223.59"/>
<polygon fill="black" stroke="black" points="820.77,-224.71 822.21,-214.21 814.54,-221.52 820.77,-224.71"/>
</g>
<!-- board_processor_cores_core_interrupts_int_requestor -->
<g id="node6" class="node">
<title>board_processor_cores_core_interrupts_int_requestor</title>
<path fill="#94918b" stroke="#000000" d="M387.5,-398C387.5,-398 316.5,-398 316.5,-398 310.5,-398 304.5,-392 304.5,-386 304.5,-386 304.5,-374 304.5,-374 304.5,-368 310.5,-362 316.5,-362 316.5,-362 387.5,-362 387.5,-362 393.5,-362 399.5,-368 399.5,-374 399.5,-374 399.5,-386 399.5,-386 399.5,-392 393.5,-398 387.5,-398"/>
<text text-anchor="middle" x="352" y="-376.3" font-family="Arial" font-size="14.00" fill="#000000">int_requestor</text>
</g>
<!-- board_processor_cores_core_interrupts_int_requestor&#45;&gt;board_cache_hierarchy_membus_cpu_side_ports -->
<g id="edge6" class="edge">
<title>board_processor_cores_core_interrupts_int_requestor&#45;&gt;board_cache_hierarchy_membus_cpu_side_ports</title>
<path fill="none" stroke="black" d="M352,-361.88C352,-330.31 352,-262.67 352,-224.57"/>
<polygon fill="black" stroke="black" points="355.5,-224.21 352,-214.21 348.5,-224.21 355.5,-224.21"/>
</g>
<!-- board_processor_cores_core_interrupts_int_responder -->
<g id="node7" class="node">
<title>board_processor_cores_core_interrupts_int_responder</title>
<path fill="#94918b" stroke="#000000" d="M577.5,-398C577.5,-398 502.5,-398 502.5,-398 496.5,-398 490.5,-392 490.5,-386 490.5,-386 490.5,-374 490.5,-374 490.5,-368 496.5,-362 502.5,-362 502.5,-362 577.5,-362 577.5,-362 583.5,-362 589.5,-368 589.5,-374 589.5,-374 589.5,-386 589.5,-386 589.5,-392 583.5,-398 577.5,-398"/>
<text text-anchor="middle" x="540" y="-376.3" font-family="Arial" font-size="14.00" fill="#000000">int_responder</text>
</g>
<!-- board_cache_hierarchy_membus_mem_side_ports -->
<g id="node11" class="node">
<title>board_cache_hierarchy_membus_mem_side_ports</title>
<path fill="#586070" stroke="#000000" d="M530,-214C530,-214 436,-214 436,-214 430,-214 424,-208 424,-202 424,-202 424,-190 424,-190 424,-184 430,-178 436,-178 436,-178 530,-178 530,-178 536,-178 542,-184 542,-190 542,-190 542,-202 542,-202 542,-208 536,-214 530,-214"/>
<text text-anchor="middle" x="483" y="-192.3" font-family="Arial" font-size="14.00" fill="#000000">mem_side_ports</text>
</g>
<!-- board_processor_cores_core_interrupts_int_responder&#45;&gt;board_cache_hierarchy_membus_mem_side_ports -->
<g id="edge7" class="edge">
<title>board_processor_cores_core_interrupts_int_responder&#45;&gt;board_cache_hierarchy_membus_mem_side_ports</title>
<path fill="none" stroke="black" d="M531.55,-352.03C519.66,-314.07 498.34,-245.98 488.39,-214.21"/>
<polygon fill="black" stroke="black" points="528.31,-353.38 534.64,-361.88 534.99,-351.29 528.31,-353.38"/>
</g>
<!-- board_processor_cores_core_interrupts_pio -->
<g id="node8" class="node">
<title>board_processor_cores_core_interrupts_pio</title>
<path fill="#94918b" stroke="#000000" d="M460,-398C460,-398 430,-398 430,-398 424,-398 418,-392 418,-386 418,-386 418,-374 418,-374 418,-368 424,-362 430,-362 430,-362 460,-362 460,-362 466,-362 472,-368 472,-374 472,-374 472,-386 472,-386 472,-392 466,-398 460,-398"/>
<text text-anchor="middle" x="445" y="-376.3" font-family="Arial" font-size="14.00" fill="#000000">pio</text>
</g>
<!-- board_processor_cores_core_interrupts_pio&#45;&gt;board_cache_hierarchy_membus_mem_side_ports -->
<g id="edge8" class="edge">
<title>board_processor_cores_core_interrupts_pio&#45;&gt;board_cache_hierarchy_membus_mem_side_ports</title>
<path fill="none" stroke="black" d="M450.63,-352.03C458.56,-314.07 472.77,-245.98 479.41,-214.21"/>
<polygon fill="black" stroke="black" points="447.19,-351.37 448.57,-361.88 454.04,-352.8 447.19,-351.37"/>
</g>
<!-- board_memory_mem_ctrl_port -->
<g id="node9" class="node">
<title>board_memory_mem_ctrl_port</title>
<path fill="#7f7c77" stroke="#000000" d="M236,-398C236,-398 206,-398 206,-398 200,-398 194,-392 194,-386 194,-386 194,-374 194,-374 194,-368 200,-362 206,-362 206,-362 236,-362 236,-362 242,-362 248,-368 248,-374 248,-374 248,-386 248,-386 248,-392 242,-398 236,-398"/>
<text text-anchor="middle" x="221" y="-376.3" font-family="Arial" font-size="14.00" fill="#000000">port</text>
</g>
<!-- board_memory_mem_ctrl_port&#45;&gt;board_cache_hierarchy_membus_mem_side_ports -->
<g id="edge9" class="edge">
<title>board_memory_mem_ctrl_port&#45;&gt;board_cache_hierarchy_membus_mem_side_ports</title>
<path fill="none" stroke="black" d="M240.42,-354.27C253.34,-339.79 271.64,-322.68 292,-314 317.2,-303.25 391.49,-320.06 415,-306 449.65,-285.28 469.29,-239.37 477.83,-214.25"/>
<polygon fill="black" stroke="black" points="237.66,-352.1 233.81,-361.97 242.98,-356.66 237.66,-352.1"/>
</g>
<!-- board_cache_hierarchy_l2&#45;cache&#45;0_mem_side -->
<g id="node17" class="node">
<title>board_cache_hierarchy_l2&#45;cache&#45;0_mem_side</title>
<path fill="#7f7c77" stroke="#000000" d="M634,-84C634,-84 578,-84 578,-84 572,-84 566,-78 566,-72 566,-72 566,-60 566,-60 566,-54 572,-48 578,-48 578,-48 634,-48 634,-48 640,-48 646,-54 646,-60 646,-60 646,-72 646,-72 646,-78 640,-84 634,-84"/>
<text text-anchor="middle" x="606" y="-62.3" font-family="Arial" font-size="14.00" fill="#000000">mem_side</text>
</g>
<!-- board_cache_hierarchy_membus_cpu_side_ports&#45;&gt;board_cache_hierarchy_l2&#45;cache&#45;0_mem_side -->
<g id="edge10" class="edge">
<title>board_cache_hierarchy_membus_cpu_side_ports&#45;&gt;board_cache_hierarchy_l2&#45;cache&#45;0_mem_side</title>
<path fill="none" stroke="black" d="M394.95,-173.36C444.95,-148.16 526.5,-107.06 572.21,-84.03"/>
<polygon fill="black" stroke="black" points="393.35,-170.24 385.99,-177.87 396.5,-176.5 393.35,-170.24"/>
</g>
<!-- board_cache_hierarchy_membus_default -->
<g id="node12" class="node">
<title>board_cache_hierarchy_membus_default</title>
<path fill="#586070" stroke="#000000" d="M267.5,-214C267.5,-214 234.5,-214 234.5,-214 228.5,-214 222.5,-208 222.5,-202 222.5,-202 222.5,-190 222.5,-190 222.5,-184 228.5,-178 234.5,-178 234.5,-178 267.5,-178 267.5,-178 273.5,-178 279.5,-184 279.5,-190 279.5,-190 279.5,-202 279.5,-202 279.5,-208 273.5,-214 267.5,-214"/>
<text text-anchor="middle" x="251" y="-192.3" font-family="Arial" font-size="14.00" fill="#000000">default</text>
</g>
<!-- board_cache_hierarchy_membus_badaddr_responder_pio -->
<g id="node13" class="node">
<title>board_cache_hierarchy_membus_badaddr_responder_pio</title>
<path fill="#9f8575" stroke="#000000" d="M272,-84C272,-84 242,-84 242,-84 236,-84 230,-78 230,-72 230,-72 230,-60 230,-60 230,-54 236,-48 242,-48 242,-48 272,-48 272,-48 278,-48 284,-54 284,-60 284,-60 284,-72 284,-72 284,-78 278,-84 272,-84"/>
<text text-anchor="middle" x="257" y="-62.3" font-family="Arial" font-size="14.00" fill="#000000">pio</text>
</g>
<!-- board_cache_hierarchy_membus_default&#45;&gt;board_cache_hierarchy_membus_badaddr_responder_pio -->
<g id="edge11" class="edge">
<title>board_cache_hierarchy_membus_default&#45;&gt;board_cache_hierarchy_membus_badaddr_responder_pio</title>
<path fill="none" stroke="black" d="M251.81,-177.74C252.81,-156.36 254.53,-119.69 255.71,-94.44"/>
<polygon fill="black" stroke="black" points="259.21,-94.55 256.18,-84.4 252.22,-94.22 259.21,-94.55"/>
</g>
<!-- board_cache_hierarchy_l1i&#45;cache&#45;0_mem_side -->
<g id="node19" class="node">
<title>board_cache_hierarchy_l1i&#45;cache&#45;0_mem_side</title>
<path fill="#7f7c77" stroke="#000000" d="M828,-84C828,-84 772,-84 772,-84 766,-84 760,-78 760,-72 760,-72 760,-60 760,-60 760,-54 766,-48 772,-48 772,-48 828,-48 828,-48 834,-48 840,-54 840,-60 840,-60 840,-72 840,-72 840,-78 834,-84 828,-84"/>
<text text-anchor="middle" x="800" y="-62.3" font-family="Arial" font-size="14.00" fill="#000000">mem_side</text>
</g>
<!-- board_cache_hierarchy_l2buses_cpu_side_ports&#45;&gt;board_cache_hierarchy_l1i&#45;cache&#45;0_mem_side -->
<g id="edge12" class="edge">
<title>board_cache_hierarchy_l2buses_cpu_side_ports&#45;&gt;board_cache_hierarchy_l1i&#45;cache&#45;0_mem_side</title>
<path fill="none" stroke="black" d="M824.39,-167.72C818.29,-142.52 809.41,-105.84 804.21,-84.4"/>
<polygon fill="black" stroke="black" points="821.06,-168.84 826.82,-177.74 827.87,-167.19 821.06,-168.84"/>
</g>
<!-- board_cache_hierarchy_l1d&#45;cache&#45;0_mem_side -->
<g id="node21" class="node">
<title>board_cache_hierarchy_l1d&#45;cache&#45;0_mem_side</title>
<path fill="#7f7c77" stroke="#000000" d="M1022,-84C1022,-84 966,-84 966,-84 960,-84 954,-78 954,-72 954,-72 954,-60 954,-60 954,-54 960,-48 966,-48 966,-48 1022,-48 1022,-48 1028,-48 1034,-54 1034,-60 1034,-60 1034,-72 1034,-72 1034,-78 1028,-84 1022,-84"/>
<text text-anchor="middle" x="994" y="-62.3" font-family="Arial" font-size="14.00" fill="#000000">mem_side</text>
</g>
<!-- board_cache_hierarchy_l2buses_cpu_side_ports&#45;&gt;board_cache_hierarchy_l1d&#45;cache&#45;0_mem_side -->
<g id="edge13" class="edge">
<title>board_cache_hierarchy_l2buses_cpu_side_ports&#45;&gt;board_cache_hierarchy_l1d&#45;cache&#45;0_mem_side</title>
<path fill="none" stroke="black" d="M876.43,-173.09C897.51,-161.79 922.23,-146.83 942,-130 957.87,-116.49 972.66,-97.72 982.38,-84.19"/>
<polygon fill="black" stroke="black" points="874.56,-170.12 867.33,-177.87 877.81,-176.32 874.56,-170.12"/>
</g>
<!-- board_cache_hierarchy_l2buses_mem_side_ports -->
<g id="node15" class="node">
<title>board_cache_hierarchy_l2buses_mem_side_ports</title>
<path fill="#586070" stroke="#000000" d="M747,-214C747,-214 653,-214 653,-214 647,-214 641,-208 641,-202 641,-202 641,-190 641,-190 641,-184 647,-178 653,-178 653,-178 747,-178 747,-178 753,-178 759,-184 759,-190 759,-190 759,-202 759,-202 759,-208 753,-214 747,-214"/>
<text text-anchor="middle" x="700" y="-192.3" font-family="Arial" font-size="14.00" fill="#000000">mem_side_ports</text>
</g>
<!-- board_cache_hierarchy_l2&#45;cache&#45;0_cpu_side -->
<g id="node16" class="node">
<title>board_cache_hierarchy_l2&#45;cache&#45;0_cpu_side</title>
<path fill="#7f7c77" stroke="#000000" d="M723.5,-84C723.5,-84 676.5,-84 676.5,-84 670.5,-84 664.5,-78 664.5,-72 664.5,-72 664.5,-60 664.5,-60 664.5,-54 670.5,-48 676.5,-48 676.5,-48 723.5,-48 723.5,-48 729.5,-48 735.5,-54 735.5,-60 735.5,-60 735.5,-72 735.5,-72 735.5,-78 729.5,-84 723.5,-84"/>
<text text-anchor="middle" x="700" y="-62.3" font-family="Arial" font-size="14.00" fill="#000000">cpu_side</text>
</g>
<!-- board_cache_hierarchy_l2buses_mem_side_ports&#45;&gt;board_cache_hierarchy_l2&#45;cache&#45;0_cpu_side -->
<g id="edge14" class="edge">
<title>board_cache_hierarchy_l2buses_mem_side_ports&#45;&gt;board_cache_hierarchy_l2&#45;cache&#45;0_cpu_side</title>
<path fill="none" stroke="black" d="M700,-177.74C700,-156.36 700,-119.69 700,-94.44"/>
<polygon fill="black" stroke="black" points="703.5,-94.4 700,-84.4 696.5,-94.4 703.5,-94.4"/>
</g>
</g>
</svg>
